<svg width="400" height="140" viewBox="0 0 400 140" fill="none" xmlns="http://www.w3.org/2000/svg">
<g clip-path="url(#clip0_26_108)">
<path d="M23.0574 31.2891V21.6323H26.4245V18.8981H16.6228V21.6323H19.9271V31.2891H23.0574Z" fill="white"/>
<path d="M45.2501 22.7676C45.2501 19.845 43.395 18.903 40.6415 18.903H35.574V31.2891H38.7285V27.1443H39.8202C40.685 27.1443 41.0618 27.2892 41.2695 28.2167L41.7332 29.951C41.8053 30.4593 42.0511 30.927 42.4289 31.2746H45.9409C45.5917 30.903 45.3453 30.4468 45.2259 29.951L44.5979 27.6805C44.3032 26.6081 43.7139 26.1443 42.5786 25.9559V25.8931C44.197 25.6951 45.2501 24.6806 45.2501 22.7676ZM40.4193 24.5163H38.7285V21.5696H40.4338C41.4627 21.5696 42.0279 22.0961 42.0279 23.0623C42.0279 24.154 41.4192 24.5163 40.4096 24.5163H40.4193Z" fill="white"/>
<path d="M62.3657 18.8981H58.501L54.0181 31.2891H57.3223L58.1194 28.9848H62.6845L63.5058 31.2987H66.8873L62.3657 18.8981ZM58.9841 26.3472L59.3175 25.381C59.7265 24.2045 60.0637 23.0043 60.3271 21.7869H60.414C60.6365 23.0174 60.9597 24.2275 61.3802 25.4052L61.7184 26.3713L58.9841 26.3472Z" fill="white"/>
<path d="M82.0126 18.8981L80.1382 25.2071C79.8321 26.2945 79.622 27.4066 79.5102 28.5307H79.4232C79.2947 27.3986 79.0668 26.2799 78.7421 25.1878L76.8098 18.9077H73.4282L77.5102 31.2987H81.2734L85.3555 18.9077L82.0126 18.8981Z" fill="white"/>
<path d="M104.283 21.6323V18.8981H95.7466V31.2891H104.283V28.5548H98.9011V26.323H103.63V23.6951H98.9011V21.6323H104.283Z" fill="white"/>
<path d="M117.219 18.8981V31.2891H125.002V28.5548H120.374V18.8981H117.219Z" fill="white"/>
<path d="M81.6115 46.0665H78.457V58.4575H81.6115V46.0665Z" fill="white"/>
<path d="M94.6499 58.4527H97.8044V54.0567C97.8177 53.1371 97.7758 52.2176 97.6788 51.3031H97.7658C98.0732 51.8922 98.4389 52.4489 98.8575 52.9649L103.065 58.4527H105.882V46.0665H102.727V50.5882C102.727 52.163 102.79 53.134 102.79 53.134H102.708C102.444 52.6231 102.134 52.1379 101.78 51.6847L97.5822 46.0665H94.6837L94.6499 58.4527Z" fill="white"/>
<path d="M115.456 52.3127C115.456 56.7281 117.813 58.7087 121.031 58.7087C122.567 58.7087 123.765 58.2256 124.412 57.129L124.939 58.4527H126.789V51.7669H121.34V54.2451H123.804V54.5011C123.804 55.3416 123.253 56.1387 121.591 56.1387C119.408 56.1387 118.693 54.3948 118.693 52.3755C118.693 49.2645 120.461 48.6123 121.514 48.6123C122.567 48.6123 123.345 49.2403 123.702 50.5012L126.77 49.0085C125.953 47.0133 124.142 45.8153 121.596 45.8153C117.702 45.8153 115.456 48.1679 115.456 52.3127Z" fill="white"/>
<path d="M135.808 60.1434H138.688L143.654 44.4385L143.697 44.2936H140.755L135.852 59.9985L135.808 60.1434Z" fill="white"/>
<path d="M61.2738 75.5876C61.6786 75.5569 62.079 75.6883 62.387 75.9528C62.695 76.2173 62.8854 76.5933 62.9162 76.9981L66.0708 76.1576C65.7954 73.8002 63.8389 72.9596 61.211 72.9596C58.9598 72.9596 56.7087 73.8823 56.7087 76.7663C56.7087 78.8049 57.7183 79.9836 60.8728 80.9497C62.3221 81.3942 62.7665 81.7082 62.7665 82.4231C62.7665 83.1381 62.1385 83.4521 61.3173 83.4521C60.7771 83.445 60.2568 83.2472 59.8484 82.8936C59.44 82.54 59.1697 82.0534 59.0854 81.5198L56.2256 82.8869C56.9405 85.0946 58.641 85.853 61.0564 85.853C63.7906 85.853 66.0418 84.8868 66.0418 82.1091C66.0418 79.6937 64.8051 78.8049 61.9839 77.945C60.6168 77.5682 60.0516 77.23 60.0516 76.4957C60.0516 75.7615 60.6216 75.5876 61.2738 75.5876Z" fill="white"/>
<path d="M81.5486 85.6211V75.9643H84.9157V73.2301H75.114V75.9643H78.4135V85.6211H81.5486Z" fill="white"/>
<path d="M96.8382 85.6211L97.616 83.3072H102.181L103.002 85.6211H106.384L101.862 73.2301H97.9976L93.5146 85.6211H96.8382ZM98.8382 79.7082C99.2446 78.5309 99.5817 77.3308 99.8478 76.1141H99.93C100.151 77.3448 100.474 78.5551 100.896 79.7324L101.229 80.6985H98.4759L98.8382 79.7082Z" fill="white"/>
<path d="M127.398 73.2301H124.243V77.7759C124.243 79.3556 124.306 80.3217 124.306 80.3217H124.224C123.959 79.8118 123.649 79.3267 123.297 78.8725L119.089 73.2543H116.166V85.6453H119.321V81.2492C119.334 80.3281 119.292 79.407 119.195 78.4908H119.282C119.587 79.0813 119.953 79.6382 120.374 80.1526L124.582 85.6453H127.398V73.2301Z" fill="white"/>
<path d="M121.383 104.645L117.113 110.442V112.794H126.915V110.06H122.519C121.969 110.053 121.42 110.088 120.876 110.166V110.084C121.38 109.617 121.838 109.103 122.243 108.548L126.683 102.635V100.408H117.219V103.142H121.084C121.633 103.15 122.183 103.114 122.726 103.036V103.123C122.223 103.578 121.772 104.089 121.383 104.645V104.645Z" fill="white"/>
<path d="M140.649 100.399L136.166 112.785H139.47L140.248 110.471H144.813L145.634 112.785H149.016L144.494 100.399H140.649ZM141.132 107.843L141.47 106.877C141.877 105.698 142.214 104.496 142.48 103.278H142.562C142.79 104.509 143.122 105.72 143.552 106.896L143.885 107.862L141.132 107.843Z" fill="white"/>
<path d="M163.827 105.133C162.46 104.751 161.895 104.418 161.895 103.684C161.895 102.949 162.465 102.741 163.117 102.741C163.52 102.711 163.92 102.842 164.227 103.105C164.534 103.369 164.724 103.744 164.754 104.147L167.909 103.307C167.638 100.949 165.682 100.109 163.049 100.109C160.803 100.109 158.552 101.036 158.552 103.915C158.552 105.959 159.561 107.138 162.716 108.104C164.189 108.543 164.61 108.862 164.61 109.577C164.61 110.292 163.977 110.606 163.16 110.606C162.621 110.598 162.102 110.4 161.694 110.046C161.287 109.693 161.017 109.207 160.933 108.674L158.073 110.041C158.788 112.249 160.489 113.007 162.904 113.007C165.639 113.007 167.89 112.041 167.89 109.263C167.885 106.896 166.663 105.993 163.827 105.133Z" fill="white"/>
<path d="M136.552 136.552H3.32842V3.32842H136.552V15.3764H139.886V0H0V139.886H139.886V123.229H136.552V136.552Z" fill="white"/>
<path d="M312.34 18.7338C312.661 18.4923 313.05 18.3587 313.451 18.3522C313.789 18.3373 314.119 18.2492 314.42 18.0941C314.72 17.939 314.983 17.7204 315.191 17.4537C315.534 17.0334 315.519 16.5793 315.891 16.217C316.194 15.87 316.61 15.6408 317.065 15.5696C317.471 15.59 317.876 15.5224 318.253 15.3716L318.635 15.1542C318.437 15.216 318.233 15.2549 318.026 15.2701C317.688 15.2991 317.166 15.159 316.852 15.159C316.361 15.1708 315.887 15.3402 315.5 15.6421C315.118 15.9996 314.751 16.5648 314.364 16.7145C313.998 16.8954 313.588 16.9723 313.181 16.9368C312.837 16.776 312.458 16.7045 312.079 16.729C311.892 16.7417 311.707 16.7858 311.534 16.8595L315.934 11.2412L310.051 15.4585C310.072 15.2402 310.132 15.0274 310.229 14.8305C310.398 14.4634 311.002 14.0769 311.089 13.4682C311.212 12.9808 311.152 12.4651 310.92 12.019C310.723 11.6124 310.667 11.1518 310.761 10.7099C310.835 10.3452 311.013 10.0097 311.273 9.74369C311.528 9.53401 311.709 9.2478 311.79 8.92729L311.852 8.67608C311.852 8.67608 311.852 8.78236 311.572 9.12052C311.292 9.45867 311.118 9.39104 310.766 9.71471C310.41 10.0342 310.159 10.4534 310.046 10.9176C309.91 11.4683 310.167 11.6808 310.089 12.246C310.07 12.6251 309.926 12.9871 309.679 13.275C309.472 13.5476 309.195 13.7582 308.877 13.8837C308.554 14.0354 308.301 14.3027 308.167 14.6325L307.06 7.72925L306.017 14.6711C305.851 14.428 305.719 14.163 305.626 13.8837C305.633 13.3167 305.453 12.7631 305.113 12.3088C304.769 11.9394 304.329 11.6719 303.843 11.5359C303.401 11.3256 303.042 10.9736 302.824 10.5359C302.708 10.1065 302.639 9.66605 302.616 9.22197C302.525 9.02305 302.42 8.83093 302.302 8.6471C302.386 8.86617 302.43 9.09848 302.432 9.33307C302.363 9.72129 302.316 10.1133 302.292 10.507C302.325 10.9754 302.54 11.4124 302.891 11.7243C303.413 12.2074 303.63 12.1494 303.954 12.7871C304.082 12.9785 304.162 13.1975 304.188 13.426C304.214 13.6545 304.185 13.8859 304.104 14.1011C303.962 14.402 303.918 14.74 303.978 15.0672C304.034 15.1799 304.071 15.3005 304.089 15.4247L298.225 11.2171L302.572 16.845C302.263 16.8153 301.967 16.7054 301.713 16.5261C301.383 16.1991 300.973 15.9643 300.524 15.845C300.156 15.7437 299.766 15.7538 299.403 15.874C299.091 16.0071 298.768 16.1137 298.437 16.1928C297.901 16.2716 297.355 16.1513 296.901 15.8547C296.639 15.5948 296.337 15.378 296.007 15.2122C295.858 15.1636 295.704 15.128 295.548 15.1059C295.821 15.2112 296.067 15.3763 296.268 15.589C296.587 15.9464 296.66 16.2846 297.114 16.5551C297.504 16.7935 297.956 16.9112 298.413 16.8933C298.742 16.8169 299.082 16.7957 299.418 16.8305C299.8 16.8855 300.161 17.0386 300.466 17.2749C300.862 17.758 301.104 18.2121 301.297 18.386C301.452 18.5303 301.634 18.642 301.833 18.7145L294.587 19.9125C294.587 19.9125 301.408 19.4633 302.316 19.4294C303.225 19.3956 305.645 19.1976 307.147 19.2169C308.65 19.2362 309.519 19.3038 310.529 19.3666L319.789 19.9512L312.34 18.7338Z" fill="white"/>
<path d="M221.656 32.0766C221.656 27.0622 221.656 26.1636 221.589 25.1347C221.521 24.1057 221.27 23.5309 220.207 23.3038C219.847 23.239 219.481 23.2067 219.115 23.2072C218.985 23.2072 218.859 23.1444 218.859 23.0188C218.859 22.8932 219.019 22.7579 219.371 22.7579C220.821 22.7579 222.714 22.8546 222.908 22.8546C223.197 22.8546 225.062 22.7579 226.023 22.7579C226.376 22.7579 226.54 22.8207 226.54 23.0188C226.54 23.2169 226.41 23.2072 226.284 23.2072C226.015 23.2171 225.747 23.2494 225.482 23.3038C224.608 23.4632 224.357 24.0091 224.289 25.1347C224.226 26.1636 224.226 27.067 224.226 32.0766V34.0089H224.357C224.903 33.4002 230.714 27.4873 231.874 26.2361C232.772 25.2989 233.608 24.468 233.608 23.9173C233.625 23.7749 233.593 23.6308 233.518 23.5088C233.442 23.3868 233.327 23.2941 233.192 23.2458C233.033 23.183 232.903 23.1154 232.903 22.9898C232.903 22.8642 233.062 22.7628 233.284 22.7628C233.927 22.7628 234.927 22.8594 235.7 22.8594C235.864 22.8594 237.985 22.7628 238.786 22.7628C239.144 22.7628 239.27 22.8256 239.27 22.9898C239.27 23.1541 239.207 23.212 238.946 23.212C238.323 23.2418 237.711 23.3962 237.149 23.6661C235.83 24.241 235.125 25.0429 233.68 26.4245C232.874 27.1974 227.279 32.6611 226.608 33.4678C227.444 34.3953 234.13 41.3082 235.444 42.5256C238.144 45.0328 238.598 45.6801 240.231 46.1922C240.879 46.4002 241.548 46.5394 242.226 46.6076C242.448 46.6076 242.641 46.6704 242.641 46.8008C242.641 46.9313 242.482 47.0569 241.936 47.0569H240.298C239.395 47.0569 238.786 47.0569 238.081 46.9941C236.376 46.8298 235.574 46.1245 234.192 45.0328C232.743 43.8444 225.932 36.4822 224.391 34.5886H224.231V37.7383C224.231 40.8251 224.231 43.3613 224.391 44.7139C224.487 45.6414 224.68 46.3467 225.647 46.482C226.061 46.5472 226.479 46.5892 226.898 46.6076C227.091 46.6076 227.154 46.7042 227.154 46.8008C227.154 46.8974 226.994 47.0569 226.637 47.0569C225.067 47.0569 223.202 46.9602 222.946 46.9602C222.69 46.9602 220.826 47.0569 219.859 47.0569C219.507 47.0569 219.342 46.9941 219.342 46.8008C219.342 46.7042 219.41 46.6076 219.603 46.6076C219.929 46.5964 220.252 46.5543 220.569 46.482C221.212 46.3467 221.371 45.6414 221.497 44.7139C221.661 43.3613 221.661 40.8493 221.661 37.7383L221.656 32.0766Z" fill="white"/>
<path d="M261.167 42.6802C261.23 45.3178 261.549 46.1535 262.419 46.4095C262.944 46.5346 263.482 46.5994 264.022 46.6028C264.187 46.6028 264.283 46.6656 264.283 46.796C264.283 46.9264 264.09 47.052 263.704 47.052C261.873 47.052 260.588 46.9554 260.322 46.9554C260.056 46.9554 258.684 47.052 257.235 47.052C256.916 47.052 256.723 47.0182 256.723 46.796C256.723 46.6656 256.82 46.6028 256.979 46.6028C257.426 46.6017 257.87 46.5366 258.298 46.4095C259.1 46.1873 259.264 45.255 259.264 42.3275L259.293 23.9125C259.293 22.6613 259.39 22.3038 259.646 22.3038C259.902 22.3038 260.453 23.0188 260.771 23.3376C261.254 23.8835 266.042 29.0573 270.993 34.3567C274.172 37.7382 277.674 41.685 278.723 42.7478L278.37 26.4197C278.336 24.3328 278.109 23.6275 277.114 23.3666C276.595 23.266 276.068 23.2127 275.539 23.2072C275.317 23.2072 275.283 23.1106 275.283 22.985C275.283 22.8594 275.539 22.7579 275.926 22.7579C277.375 22.7579 278.916 22.8545 279.268 22.8545C279.621 22.8545 280.684 22.7579 282.003 22.7579C282.351 22.7579 282.578 22.7869 282.578 22.985C282.578 23.183 282.447 23.2072 282.225 23.2072C281.966 23.2036 281.707 23.2362 281.457 23.3038C280.394 23.5309 280.264 24.2362 280.264 26.1636L280.201 45.0038C280.201 47.1245 280.138 47.2887 279.911 47.2887C279.684 47.2887 279.268 46.9361 277.563 45.2308C277.211 44.9072 272.583 40.1875 269.177 36.5354C265.452 32.521 261.82 28.4679 260.791 27.3134L261.167 42.6802Z" fill="white"/>
<path d="M293.877 37.7334C293.877 40.8203 293.877 43.3565 294.036 44.7091C294.138 45.6366 294.326 46.3467 295.292 46.4772C295.773 46.5437 296.257 46.5856 296.741 46.6028C296.93 46.6028 296.998 46.6994 296.998 46.796C296.998 46.8926 296.838 47.052 296.481 47.052C294.713 47.052 292.688 46.9554 292.529 46.9554C292.37 46.9554 290.341 47.052 289.379 47.052C289.027 47.052 288.867 46.9892 288.867 46.796C288.867 46.6994 288.93 46.6028 289.123 46.6028C289.449 46.5916 289.772 46.5495 290.089 46.4772C290.732 46.3467 290.891 45.6366 291.017 44.7091C291.181 43.3565 291.181 40.8444 291.181 37.7334V24.154L286.423 24.2217C284.433 24.2506 283.66 24.4777 283.148 25.2458C282.929 25.5527 282.746 25.8833 282.602 26.2313C282.505 26.4825 282.404 26.5501 282.278 26.5501C282.152 26.5501 282.119 26.4535 282.119 26.2603C282.119 25.9366 282.761 23.1782 282.824 22.9222C282.887 22.6661 283.012 22.3038 283.148 22.3038C283.6 22.492 284.074 22.6234 284.558 22.6951C285.491 22.7869 286.713 22.8545 287.099 22.8545H299.147C300.216 22.857 301.283 22.7502 302.331 22.5357C302.49 22.5357 302.49 22.7241 302.49 22.9222C302.49 23.8883 302.394 26.1008 302.394 26.4535C302.394 26.8061 302.302 26.8738 302.166 26.8738C302.031 26.8738 301.944 26.7772 301.91 26.3231L301.881 25.9704C301.751 25.0043 301.012 24.27 297.925 24.2072L293.877 24.154V37.7334Z" fill="white"/>
<path d="M335.528 37.7334C335.528 40.8203 335.528 43.3565 335.688 44.7091C335.779 45.6366 335.973 46.3468 336.939 46.4772C337.419 46.5435 337.903 46.5854 338.388 46.6028C338.581 46.6028 338.649 46.6994 338.649 46.796C338.649 46.8926 338.485 47.0521 338.132 47.0521C336.364 47.0521 334.34 46.9554 334.18 46.9554C334.021 46.9554 331.997 47.0521 331.031 47.0521C330.678 47.0521 330.519 46.9893 330.519 46.796C330.519 46.6994 330.581 46.6028 330.775 46.6028C331.1 46.5913 331.423 46.5492 331.741 46.4772C332.383 46.3468 332.543 45.6366 332.668 44.7091C332.828 43.3565 332.828 40.8445 332.828 37.7334V24.1541L328.523 24.2217C326.533 24.2507 325.76 24.4777 325.248 25.2458C325.03 25.5588 324.845 25.894 324.697 26.2458C324.606 26.497 324.509 26.5646 324.379 26.5646C324.248 26.5646 324.214 26.468 324.214 26.2748C324.214 25.9511 324.857 23.1927 324.924 22.9367C324.992 22.6807 325.118 22.3184 325.248 22.3184C325.701 22.5057 326.174 22.6371 326.659 22.7097C327.591 22.8014 328.813 22.8691 329.2 22.8691H340.794C341.558 22.8664 342.321 22.8131 343.079 22.7097C343.373 22.6386 343.671 22.5854 343.972 22.5502C344.137 22.5502 344.137 22.7386 344.137 22.9367C344.137 23.9029 344.04 26.1154 344.04 26.468C344.04 26.8207 343.943 26.8883 343.818 26.8883C343.692 26.8883 343.591 26.7917 343.557 26.3376L343.528 25.9849C343.397 25.0188 342.658 24.2845 339.571 24.2217L335.528 24.1541V37.7334Z" fill="white"/>
<path d="M369.556 37.7334C369.556 40.8203 369.556 43.3565 369.716 44.7091C369.812 45.6366 370.005 46.3468 370.967 46.4772C371.447 46.5433 371.931 46.5852 372.416 46.6028C372.609 46.6028 372.672 46.6994 372.672 46.796C372.672 46.8926 372.513 47.0521 372.155 47.0521C370.392 47.0521 368.368 46.9554 368.208 46.9554C368.049 46.9554 366.02 47.0521 365.059 47.0521C364.701 47.0521 364.542 46.9893 364.542 46.796C364.542 46.6994 364.605 46.6028 364.798 46.6028C365.123 46.5919 365.447 46.5498 365.764 46.4772C366.407 46.3468 366.566 45.6366 366.692 44.7091C366.856 43.3565 366.856 40.8445 366.856 37.7334V24.1541L362.102 24.2217C360.107 24.2507 359.334 24.4777 358.822 25.2458C358.607 25.5597 358.424 25.8948 358.276 26.2458C358.18 26.497 358.083 26.5646 357.953 26.5646C357.822 26.5646 357.793 26.468 357.793 26.2748C357.793 25.9511 358.436 23.1927 358.498 22.9367C358.561 22.6807 358.692 22.3184 358.822 22.3184C359.276 22.5054 359.752 22.6368 360.238 22.7097C361.165 22.8014 362.387 22.8691 362.774 22.8691H374.827C375.589 22.8662 376.351 22.813 377.107 22.7097C377.404 22.6383 377.706 22.585 378.01 22.5502C378.17 22.5502 378.17 22.7386 378.17 22.9367C378.17 23.9029 378.068 26.1154 378.068 26.468C378.068 26.8207 377.976 26.8883 377.846 26.8883C377.715 26.8883 377.619 26.7917 377.59 26.3376L377.556 25.9849C377.43 25.0188 376.691 24.2845 373.604 24.2217L369.556 24.1541V37.7334Z" fill="white"/>
<path d="M243.023 32.0765C243.023 27.0621 243.023 26.1636 242.955 25.1346C242.888 24.1057 242.637 23.5308 241.579 23.3037C241.217 23.2389 240.85 23.2066 240.482 23.2071C240.357 23.2071 240.226 23.1443 240.226 23.0187C240.226 22.8931 240.385 22.7579 240.743 22.7579C242.192 22.7579 244.211 22.8545 244.371 22.8545C244.53 22.8545 253.491 22.8545 254.226 22.8207C254.69 22.8039 255.152 22.7506 255.607 22.6612C255.772 22.6274 255.902 22.5018 256.061 22.5018C256.221 22.5018 256.187 22.6274 256.187 22.7868C256.187 22.9463 256.028 23.4004 255.931 24.3037C255.902 24.6177 255.839 26.0331 255.772 26.4196C255.738 26.579 255.675 26.7771 255.545 26.7771C255.414 26.7771 255.289 26.6177 255.289 26.3568C255.292 25.9625 255.228 25.5704 255.1 25.1974C254.868 24.6854 252.052 24.3037 250.318 24.1057C249.772 24.0429 246.269 24.009 245.917 24.009C245.786 24.009 245.719 24.1057 245.719 24.3327V33.2021C245.719 33.4291 245.753 33.5257 245.917 33.5257C246.332 33.5257 252.781 33.5257 253.52 33.4629C254.26 33.4001 254.743 33.3277 255.032 33.0088C255.322 32.69 255.385 32.5885 255.516 32.5885C255.646 32.5885 255.68 32.6562 255.68 32.8494C255.68 33.0426 255.516 33.5885 255.424 34.6465C255.361 35.2938 255.293 36.4773 255.293 36.7044C255.293 36.9314 255.293 37.3179 255.071 37.3179C254.849 37.3179 254.844 37.1875 254.844 37.0281C254.86 36.669 254.816 36.3098 254.714 35.9653C254.588 35.516 251.815 34.9701 250.545 34.8397C249.68 34.7479 246.496 34.6803 245.951 34.6803C245.92 34.6773 245.889 34.6811 245.86 34.6914C245.831 34.7018 245.805 34.7184 245.783 34.7401C245.762 34.7618 245.745 34.7881 245.735 34.817C245.724 34.8459 245.721 34.8768 245.724 34.9073V37.7333C245.724 38.8251 245.695 42.5641 245.724 43.226C245.825 45.4433 246.308 45.8636 249.453 45.8636C250.289 45.8636 254.202 45.8636 255.037 45.5109C255.873 45.1583 256.26 44.5158 256.487 43.1922C256.554 42.8443 256.617 42.7091 256.776 42.7091C256.936 42.7091 256.97 42.9651 256.97 43.1922C256.97 43.4192 256.714 45.6365 256.554 46.3129C256.327 47.1486 256.071 47.1486 254.815 47.1486C249.984 47.1486 245.313 46.9553 244.381 46.9553C244.318 46.9553 243.772 46.9892 243.096 46.9892C242.419 46.9892 241.714 47.052 241.231 47.052C240.878 47.052 240.719 46.9892 240.719 46.7959C240.719 46.6993 240.786 46.6027 240.975 46.6027C241.3 46.5924 241.624 46.5503 241.941 46.4771C242.583 46.3418 242.748 45.6365 242.878 44.709C243.038 43.3564 243.038 40.8444 243.038 37.7333L243.023 32.0765Z" fill="white"/>
<path d="M381.339 32.2504C381.339 27.2409 381.339 26.3424 381.276 25.3134C381.213 24.2844 380.952 23.7047 379.894 23.4825C379.534 23.4159 379.169 23.3836 378.802 23.3859C378.672 23.3859 378.542 23.3231 378.542 23.1927C378.542 23.0622 378.706 22.9318 379.058 22.9318C380.508 22.9318 382.527 23.0284 382.686 23.0284C382.846 23.0284 391.807 23.0284 392.546 22.9994C393.01 22.982 393.472 22.9287 393.928 22.84C394.087 22.8062 394.217 22.6758 394.377 22.6758C394.536 22.6758 394.507 22.8062 394.507 22.9656C394.507 23.125 394.348 23.5743 394.251 24.4777C394.217 24.7965 394.155 26.2119 394.087 26.5984C394.058 26.7578 393.99 26.951 393.865 26.951C393.739 26.951 393.609 26.7868 393.609 26.5356C393.608 26.1412 393.543 25.7496 393.416 25.3762C393.189 24.8593 390.372 24.4777 388.633 24.2844C388.087 24.2168 384.585 24.1878 384.232 24.1878C384.102 24.1878 384.039 24.2844 384.039 24.5115V33.376C384.039 33.6031 384.068 33.6997 384.232 33.6997C384.648 33.6997 391.102 33.6997 391.841 33.6369C392.58 33.5741 393.058 33.5064 393.348 33.1876C393.638 32.8688 393.705 32.7673 393.831 32.7673C393.957 32.7673 393.99 32.8301 393.99 33.0234C393.99 33.2166 393.831 33.7625 393.734 34.8204C393.672 35.4629 393.609 36.6561 393.609 36.8832C393.609 37.1102 393.609 37.4918 393.382 37.4918C393.155 37.4918 393.155 37.3614 393.155 37.202C393.17 36.8449 393.127 36.4877 393.029 36.1441C392.899 35.6948 390.131 35.1441 388.86 35.0185C387.991 34.9219 384.812 34.8542 384.266 34.8542C384.235 34.8512 384.205 34.855 384.176 34.8654C384.147 34.8757 384.121 34.8924 384.099 34.9141C384.077 34.9358 384.06 34.962 384.05 34.991C384.04 35.0199 384.036 35.0507 384.039 35.0813V37.9073C384.039 38.9991 384.005 42.7381 384.039 43.4047C384.136 45.6221 384.614 46.0424 387.764 46.0424C388.604 46.0424 392.512 46.0424 393.348 45.6849C394.184 45.3274 394.57 44.6897 394.797 43.3709C394.86 43.0183 394.923 42.8879 395.082 42.8879C395.242 42.8879 395.275 43.1439 395.275 43.3709C395.275 43.598 395.019 45.8153 394.86 46.4868C394.633 47.3274 394.377 47.3274 393.126 47.3274C388.295 47.3274 383.624 47.1293 382.686 47.1293C382.624 47.1293 382.078 47.1631 381.401 47.1631C380.725 47.1631 380.025 47.2307 379.541 47.2307C379.184 47.2307 379.025 47.1631 379.025 46.9699C379.025 46.8733 379.087 46.7815 379.285 46.7815C379.611 46.7689 379.934 46.7252 380.252 46.651C380.894 46.5206 381.054 45.8153 381.184 44.883C381.343 43.5352 381.343 41.0183 381.343 37.9073L381.339 32.2504Z" fill="white"/>
<path d="M310.978 46.6946C310.442 46.4675 310.408 46.3371 310.408 45.4724C310.408 43.8637 310.558 42.5739 310.596 42.0908C310.635 41.7333 310.712 41.5739 310.901 41.5739C311.089 41.5739 311.171 41.6705 311.171 41.9314C311.16 42.3306 311.197 42.7296 311.282 43.1198C311.857 45.4965 314.374 46.3951 316.939 46.3951C320.606 46.3951 322.398 44.1777 322.398 42.1198C322.398 39.9073 321.142 37.8784 317.857 35.5934L316.137 34.405C312.089 31.6128 311.171 29.6177 311.171 27.4342C311.171 23.9898 314.229 21.6372 319.079 21.6372C320.134 21.6147 321.188 21.7169 322.219 21.9415C322.647 22.0297 323.082 22.0702 323.519 22.0623C323.828 22.0623 323.905 22.1299 323.905 22.2845C324.239 23.4988 324.504 24.731 324.697 25.9753C324.77 26.4583 324.625 26.7144 324.432 26.7144C324.239 26.7144 324.166 26.555 324.123 26.2941C324.089 25.9125 323.355 24.8449 323.127 24.4632C322.9 24.0816 321.867 22.7628 318.355 22.7628C315.722 22.7628 313.659 24.1396 313.659 26.4873C313.659 28.323 314.727 29.4148 318.316 31.8882L319.384 32.5935C323.891 35.5692 325.113 38.3035 325.113 40.8735C325.074 41.9635 324.755 43.025 324.186 43.9558C323.618 44.8866 322.819 45.6551 321.867 46.1873C320.096 47.1316 318.109 47.5963 316.103 47.5351C314.357 47.5811 312.618 47.2874 310.983 46.6704" fill="white"/>
<path fill-rule="evenodd" clip-rule="evenodd" d="M346.678 36.4146C346.571 36.4146 346.494 36.3518 346.571 36.1924L349.827 27.4969C350.016 27.0139 350.199 27.0139 350.388 27.4969L353.909 36.1924C353.948 36.318 353.948 36.4146 353.764 36.4146H346.678ZM341.485 43.5159C340.818 45.1245 340.079 46.3467 338.369 46.54C338.074 46.5689 337.552 46.6028 337.296 46.6028C337.04 46.6028 336.963 46.6656 336.963 46.796C336.963 46.9264 337.18 47.052 337.663 47.052C339.412 47.052 341.451 46.9554 341.856 46.9554C342.262 46.9554 343.861 47.052 344.755 47.052C345.088 47.052 345.31 46.9892 345.31 46.796C345.31 46.6028 345.199 46.6028 344.939 46.6028H344.571C343.939 46.6028 343.161 46.3129 343.161 45.6704C343.199 44.9265 343.374 44.1961 343.678 43.5159L345.885 37.83C345.913 37.7537 345.963 37.688 346.03 37.642C346.097 37.5961 346.176 37.5723 346.257 37.574H354.228C354.298 37.5667 354.368 37.5814 354.428 37.6161C354.489 37.6508 354.537 37.7036 354.566 37.7672L358.011 45.6704C358.238 46.1825 358.011 46.4772 357.793 46.54C357.576 46.6028 357.532 46.6366 357.532 46.7622C357.532 46.8878 357.938 46.9554 358.643 46.9892C361.204 47.052 363.909 47.052 364.44 47.052C364.851 47.052 365.184 46.9892 365.184 46.796C365.184 46.6028 365.039 46.6028 364.812 46.6028C364.312 46.606 363.813 46.541 363.329 46.4095C362.552 46.2163 361.474 45.7042 360.141 42.8444C357.914 37.9605 352.093 24.6854 351.537 23.4681C351.093 22.4681 350.943 22.3038 350.721 22.3038C350.499 22.3038 350.349 22.5019 349.905 23.5647L341.485 43.5159Z" fill="white"/>
<path d="M232.869 55.0324C232.869 53.4238 232.869 53.1388 232.869 52.8103C232.869 52.4818 232.767 52.2934 232.429 52.2209C232.313 52.2013 232.195 52.1916 232.077 52.1919C232.038 52.1919 231.994 52.1919 231.994 52.1291C231.994 52.0663 232.048 52.047 232.159 52.047C232.642 52.047 233.25 52.076 233.342 52.076C233.434 52.076 234.052 52.047 234.361 52.047C234.477 52.047 234.526 52.047 234.526 52.1291C234.526 52.2112 234.487 52.1919 234.448 52.1919C234.361 52.1945 234.274 52.2042 234.188 52.2209C233.912 52.2644 233.83 52.448 233.806 52.8103C233.782 53.1726 233.806 53.4238 233.806 55.0324V56.4817C233.806 57.9647 234.134 58.6024 234.579 59.0227C234.783 59.2219 235.028 59.3754 235.296 59.4728C235.564 59.5703 235.85 59.6095 236.134 59.5879C236.44 59.587 236.743 59.5205 237.021 59.393C237.299 59.2655 237.547 59.08 237.748 58.8488C238.231 58.2594 238.347 57.3995 238.347 56.3271V55.0373C238.347 53.4286 238.347 53.1436 238.347 52.8151C238.347 52.4866 238.241 52.2982 237.902 52.2257C237.788 52.2061 237.671 52.1964 237.555 52.1968C237.511 52.1968 237.473 52.1968 237.473 52.134C237.473 52.0712 237.521 52.0518 237.637 52.0518C238.12 52.0518 238.666 52.0808 238.729 52.0808C238.791 52.0808 239.284 52.0518 239.593 52.0518C239.704 52.0518 239.757 52.0518 239.757 52.134C239.757 52.2161 239.714 52.1968 239.675 52.1968C239.588 52.1996 239.501 52.2093 239.415 52.2257C239.139 52.2885 239.057 52.4528 239.038 52.8151C239.018 53.1774 239.014 53.4286 239.014 55.0373V56.1387C239.014 57.2546 238.893 58.4865 238.047 59.2207C237.465 59.7381 236.705 60.0099 235.927 59.9792C235.154 60.004 234.4 59.7444 233.806 59.2497C233.299 58.7666 232.907 58.0469 232.907 56.5396L232.869 55.0324Z" fill="white"/>
<path d="M251.414 58.4528C251.414 59.2933 251.54 59.5638 251.815 59.646C251.985 59.6847 252.158 59.7058 252.332 59.7088C252.385 59.7088 252.414 59.7088 252.414 59.7667C252.414 59.8247 252.351 59.8489 252.231 59.8489C251.641 59.8489 251.231 59.8199 251.139 59.8199C251.047 59.8199 250.612 59.8489 250.173 59.8489C250.071 59.8489 250.009 59.8489 250.009 59.7667C250.009 59.6846 250.038 59.7088 250.091 59.7088C250.233 59.7066 250.374 59.6855 250.511 59.646C250.772 59.5735 250.82 59.274 250.82 58.3368V52.4384C250.82 52.0374 250.854 51.9215 250.936 51.9215C251.018 51.9215 251.192 52.1486 251.294 52.25C251.448 52.4287 252.984 54.0857 254.569 55.7813C255.588 56.8731 256.709 58.1339 257.042 58.4721L256.926 53.2403C256.926 52.5737 256.844 52.3466 256.525 52.2742C256.366 52.2446 256.204 52.2284 256.042 52.2258C255.97 52.2258 255.955 52.1969 255.955 52.1534C255.955 52.1099 256.042 52.0809 256.163 52.0809C256.646 52.0809 257.129 52.1147 257.235 52.1147C257.342 52.1147 257.689 52.0809 258.11 52.0809C258.226 52.0809 258.298 52.0809 258.298 52.1534C258.298 52.2258 258.255 52.2258 258.182 52.2258C258.099 52.2249 258.016 52.2346 257.936 52.2548C257.598 52.3273 257.554 52.5543 257.554 53.1727V59.2064C257.554 59.8875 257.554 59.9358 257.458 59.9358C257.361 59.9358 257.255 59.8247 256.709 59.2788C256.598 59.1774 255.115 57.6605 254.023 56.4866C252.83 55.2016 251.666 53.9021 251.332 53.535L251.414 58.4528Z" fill="white"/>
<path d="M270.853 56.844C270.853 57.8101 270.853 58.6459 270.907 59.0806C270.936 59.3802 270.998 59.6072 271.307 59.6458C271.452 59.6458 271.679 59.6893 271.791 59.6893C271.902 59.6893 271.873 59.7183 271.873 59.7473C271.873 59.7763 271.82 59.8342 271.708 59.8342C271.138 59.8342 270.491 59.8004 270.443 59.8004C270.394 59.8004 269.742 59.8342 269.433 59.8342C269.317 59.8342 269.269 59.8342 269.269 59.7473C269.269 59.6603 269.269 59.6893 269.351 59.6893C269.455 59.684 269.559 59.6695 269.66 59.6458C269.863 59.6072 269.916 59.3802 269.955 59.0806C270.008 58.6459 270.008 57.8343 270.008 56.844V55.0324C270.008 53.4286 270.008 53.1388 270.008 52.8103C270.008 52.4818 269.882 52.2837 269.655 52.2306C269.551 52.2056 269.444 52.1927 269.337 52.1919C269.298 52.1919 269.254 52.1919 269.254 52.1291C269.254 52.0663 269.308 52.047 269.419 52.047C269.762 52.047 270.385 52.0808 270.462 52.0808C270.539 52.0808 271.158 52.047 271.467 52.047C271.583 52.047 271.636 52.0712 271.636 52.1291C271.636 52.1871 271.593 52.1919 271.554 52.1919C271.466 52.1945 271.379 52.2042 271.293 52.2209C271.018 52.274 270.936 52.448 270.911 52.8103C270.887 53.1726 270.911 53.4286 270.911 55.0324L270.853 56.844Z" fill="white"/>
<path d="M285.906 58.5734C286.5 57.1967 287.882 53.6026 288.109 52.8634C288.159 52.7381 288.192 52.6064 288.206 52.4721C288.208 52.4232 288.197 52.3747 288.173 52.332C288.149 52.2892 288.113 52.2541 288.07 52.2306C287.943 52.1993 287.811 52.1863 287.679 52.192C287.616 52.192 287.563 52.192 287.563 52.1292C287.563 52.0664 287.626 52.047 287.79 52.047C288.206 52.047 288.674 52.0808 288.8 52.0808C288.926 52.0808 289.283 52.047 289.602 52.047C289.718 52.047 289.776 52.047 289.776 52.1195C289.776 52.192 289.737 52.192 289.655 52.192C289.485 52.1881 289.318 52.2316 289.172 52.3176C289.037 52.4093 288.882 52.5833 288.602 53.2837C288.491 53.5736 287.974 54.8054 287.452 56.0711C286.824 57.5783 286.36 58.6894 286.124 59.1966C285.834 59.8101 285.79 59.9744 285.689 59.9744C285.587 59.9744 285.515 59.8295 285.317 59.3367L282.795 53.0229C282.568 52.448 282.414 52.3369 282.056 52.2306C281.919 52.1938 281.778 52.1743 281.636 52.1726C281.573 52.1726 281.554 52.1436 281.554 52.1002C281.554 52.0567 281.655 52.0277 281.819 52.0277C282.302 52.0277 282.901 52.0615 283.022 52.0615C283.143 52.0615 283.592 52.0277 283.988 52.0277C284.172 52.0277 284.264 52.0277 284.264 52.1002C284.264 52.1726 284.235 52.1726 284.162 52.1726C284.03 52.1681 283.898 52.1844 283.771 52.2209C283.729 52.2364 283.693 52.265 283.669 52.3024C283.645 52.3398 283.633 52.3841 283.636 52.4287C283.696 52.7234 283.79 53.0103 283.916 53.2837L285.906 58.5734Z" fill="white"/>
<path d="M300.413 55.0324C300.413 53.4238 300.413 53.1388 300.413 52.8103C300.413 52.4818 300.312 52.2934 299.969 52.2209C299.854 52.2013 299.737 52.1916 299.621 52.1919C299.577 52.1919 299.539 52.1919 299.539 52.1291C299.539 52.0663 299.587 52.047 299.703 52.047C299.94 52.047 300.22 52.047 300.442 52.047H300.862C300.94 52.047 302.988 52.047 303.224 52.047C303.374 52.0417 303.522 52.0256 303.669 51.9987C303.717 51.9987 303.761 51.9456 303.809 51.9456C303.857 51.9456 303.852 51.989 303.852 52.0373C303.852 52.0857 303.799 52.2354 303.77 52.5204C303.77 52.6267 303.737 53.0808 303.717 53.2016C303.698 53.3223 303.688 53.3127 303.645 53.3127C303.601 53.3127 303.563 53.2644 303.563 53.1822C303.564 53.0555 303.542 52.9296 303.5 52.8103C303.427 52.646 303.326 52.5204 302.77 52.4625C302.596 52.4625 301.471 52.4286 301.36 52.4286C301.249 52.4286 301.297 52.4625 301.297 52.5349V55.3754C301.297 55.4479 301.297 55.4769 301.36 55.4769C301.495 55.4769 302.761 55.4769 302.997 55.4769C303.234 55.4769 303.389 55.4334 303.48 55.3319C303.572 55.2305 303.592 55.1967 303.635 55.1967C303.679 55.1967 303.688 55.1967 303.688 55.2788C303.688 55.3609 303.635 55.5155 303.606 55.8585C303.582 56.0614 303.563 56.443 303.563 56.5155C303.563 56.588 303.563 56.7136 303.49 56.7136C303.418 56.7136 303.418 56.6701 303.418 56.6218C303.422 56.5061 303.409 56.3905 303.379 56.2788C303.336 56.1339 303.244 55.96 302.843 55.9213C302.563 55.8875 301.543 55.8682 301.369 55.8682C301.36 55.8665 301.349 55.8672 301.34 55.8702C301.33 55.8733 301.322 55.8786 301.314 55.8857C301.307 55.8928 301.302 55.9015 301.299 55.911C301.296 55.9206 301.295 55.9307 301.297 55.9406V56.844C301.297 57.1966 301.297 58.3898 301.297 58.6072C301.331 59.3174 301.485 59.4526 302.49 59.4526C302.816 59.4687 303.143 59.4295 303.456 59.3367C303.722 59.2256 303.848 59.0179 303.939 58.5976C303.939 58.4816 303.978 58.443 304.031 58.443C304.084 58.443 304.094 58.5251 304.094 58.5976C304.066 58.933 304.021 59.2668 303.959 59.5975C303.886 59.8632 303.804 59.8632 303.403 59.8632C302.63 59.8632 302.065 59.8632 301.664 59.8343C301.263 59.8053 301.012 59.8004 300.857 59.8004H300.447C300.244 59.8004 300.007 59.8004 299.853 59.8004C299.698 59.8004 299.688 59.8004 299.688 59.7135C299.688 59.6265 299.688 59.6555 299.77 59.6555C299.875 59.6502 299.978 59.6356 300.08 59.612C300.283 59.5734 300.336 59.3463 300.374 59.0468C300.427 58.6121 300.427 57.8005 300.427 56.8102L300.413 55.0324Z" fill="white"/>
<path d="M315.838 55.0325C315.838 53.4239 315.838 53.1388 315.838 52.8103C315.838 52.4819 315.731 52.2935 315.393 52.221C315.278 52.2014 315.162 52.1917 315.045 52.192C315.002 52.192 314.958 52.192 314.958 52.1292C314.958 52.0664 315.012 52.0471 315.123 52.0471C315.606 52.0471 316.239 52.0761 316.287 52.0761C316.335 52.0761 317.186 52.0471 317.504 52.0471C318.164 51.9983 318.823 52.1571 319.388 52.5012C319.605 52.6662 319.781 52.8779 319.904 53.1204C320.027 53.363 320.093 53.6302 320.098 53.9021C320.098 54.6654 319.78 55.4238 318.852 56.2789C319.698 57.361 320.398 58.274 320.997 58.9165C321.314 59.3028 321.757 59.5647 322.248 59.6556C322.382 59.6788 322.518 59.6901 322.654 59.6894C322.702 59.6894 322.746 59.7184 322.746 59.7474C322.746 59.7764 322.683 59.8343 322.499 59.8343H321.731C321.353 59.8696 320.972 59.8011 320.63 59.6363C320.185 59.3996 319.828 58.8972 319.239 58.1242C318.809 57.5542 318.326 56.8682 318.118 56.5977C318.102 56.5788 318.082 56.5638 318.059 56.5538C318.037 56.5438 318.012 56.539 317.987 56.5397L316.717 56.5156C316.669 56.5156 316.644 56.5494 316.644 56.5977V56.8441C316.644 57.8102 316.644 58.646 316.698 59.0807C316.727 59.3802 316.789 59.6073 317.099 59.6459C317.243 59.6459 317.471 59.6894 317.582 59.6894C317.693 59.6894 317.664 59.7184 317.664 59.7474C317.664 59.7764 317.611 59.8343 317.5 59.8343C316.934 59.8343 316.282 59.8005 316.234 59.8005C316.186 59.8005 315.577 59.8343 315.268 59.8343C315.152 59.8343 315.099 59.8343 315.099 59.7474C315.099 59.6604 315.099 59.6894 315.181 59.6894C315.285 59.6848 315.388 59.6702 315.49 59.6459C315.698 59.6073 315.751 59.3802 315.789 59.0807C315.843 58.646 315.843 57.8344 315.843 56.8441L315.838 55.0325ZM316.659 55.931C316.659 55.9558 316.666 55.98 316.679 56.0012C316.692 56.0224 316.71 56.0399 316.731 56.0518C317.078 56.1782 317.445 56.234 317.814 56.2161C318.085 56.2316 318.354 56.1642 318.586 56.0228C318.809 55.8269 318.981 55.5812 319.09 55.3059C319.2 55.0305 319.242 54.7332 319.214 54.4383C319.214 53.1485 318.533 52.3756 317.432 52.3756C317.2 52.3718 316.968 52.3928 316.741 52.4384C316.716 52.4483 316.695 52.4657 316.68 52.4882C316.665 52.5107 316.658 52.5371 316.659 52.564V55.931Z" fill="white"/>
<path d="M332.055 59.699C331.91 59.6265 331.9 59.583 331.9 59.3077C331.9 58.7908 331.939 58.3802 331.948 58.2159C331.958 58.0517 331.982 58.0517 332.031 58.0517C332.079 58.0517 332.103 58.0807 332.103 58.1628C332.1 58.2909 332.111 58.4189 332.137 58.5444C332.219 58.8749 332.419 59.1642 332.699 59.358C332.979 59.5518 333.32 59.637 333.659 59.5975C333.845 59.6074 334.031 59.5792 334.207 59.5147C334.382 59.4502 334.542 59.3508 334.678 59.2225C334.813 59.0942 334.921 58.9396 334.995 58.7682C335.069 58.5969 335.107 58.4122 335.108 58.2256C335.108 57.5155 334.808 57.1048 333.924 56.3706L333.441 55.9889C332.349 55.0952 332.103 54.4576 332.103 53.7571C332.103 52.6557 332.924 51.9021 334.233 51.9021C334.559 51.8947 334.884 51.9304 335.2 52.0083C335.318 52.0365 335.44 52.0527 335.562 52.0567C335.644 52.0567 335.663 52.0567 335.663 52.1291C335.663 52.2016 335.625 52.5204 335.625 53.2209C335.625 53.3851 335.601 53.4576 335.552 53.4576C335.504 53.4576 335.48 53.4044 335.47 53.3223C335.451 53.1458 335.406 52.9731 335.335 52.8103C335.272 52.6943 334.997 52.2644 334.05 52.2644C333.886 52.2508 333.721 52.2718 333.566 52.3259C333.411 52.38 333.269 52.4661 333.149 52.5786C333.03 52.691 332.935 52.8274 332.871 52.9788C332.807 53.1302 332.776 53.2933 332.779 53.4576C332.779 54.0469 333.05 54.4237 334.04 55.187L334.325 55.4141C335.543 56.3802 335.828 57.0131 335.828 57.8295C335.825 58.1629 335.745 58.4912 335.593 58.7881C335.441 59.085 335.222 59.3424 334.953 59.5396C334.49 59.8375 333.948 59.9875 333.398 59.9695C332.924 59.9825 332.453 59.8884 332.021 59.6942" fill="white"/>
<path d="M348.59 56.844C348.59 57.8101 348.591 58.6459 348.639 59.0806C348.673 59.3802 348.731 59.6072 349.04 59.6458C349.185 59.6458 349.412 59.6893 349.523 59.6893C349.634 59.6893 349.605 59.7183 349.605 59.7473C349.605 59.7763 349.557 59.8342 349.441 59.8342C348.876 59.8342 348.228 59.8004 348.175 59.8004C348.122 59.8004 347.475 59.8342 347.165 59.8342C347.054 59.8342 347.001 59.8342 347.001 59.7473C347.001 59.6603 347.001 59.6893 347.083 59.6893C347.187 59.6843 347.291 59.6698 347.392 59.6458C347.6 59.6072 347.648 59.3802 347.692 59.0806C347.745 58.6459 347.745 57.8343 347.745 56.844V55.0324C347.745 53.4286 347.745 53.1388 347.745 52.8103C347.745 52.4818 347.624 52.2837 347.397 52.2306C347.293 52.2059 347.186 52.193 347.078 52.1919C347.035 52.1919 346.996 52.1919 346.996 52.1291C346.996 52.0663 347.045 52.047 347.161 52.047C347.499 52.047 348.127 52.0808 348.199 52.0808C348.272 52.0808 348.9 52.047 349.209 52.047C349.32 52.047 349.373 52.0712 349.373 52.1291C349.373 52.1871 349.33 52.1919 349.291 52.1919C349.205 52.1946 349.119 52.2043 349.035 52.2209C348.755 52.274 348.673 52.448 348.653 52.8103C348.634 53.1726 348.653 53.4286 348.653 55.0324L348.59 56.844Z" fill="white"/>
<path d="M363.571 56.8441C363.571 57.8103 363.571 58.646 363.619 59.0808C363.653 59.3803 363.716 59.6073 364.02 59.646C364.165 59.646 364.392 59.6894 364.503 59.6894C364.614 59.6894 364.585 59.7184 364.585 59.7474C364.585 59.7764 364.537 59.8344 364.421 59.8344C363.856 59.8344 363.209 59.8005 363.156 59.8005C363.102 59.8005 362.455 59.8344 362.146 59.8344C362.035 59.8344 361.982 59.8344 361.982 59.7474C361.982 59.6605 361.982 59.6894 362.064 59.6894C362.168 59.6845 362.271 59.6699 362.373 59.646C362.581 59.6073 362.634 59.3803 362.672 59.0808C362.726 58.646 362.726 57.8344 362.726 56.8441V52.4964H361.199C360.561 52.4964 360.315 52.5785 360.151 52.8249C360.08 52.9236 360.021 53.0307 359.977 53.1437C359.943 53.2258 359.914 53.25 359.871 53.25C359.827 53.25 359.822 53.2162 359.822 53.1582C359.822 53.1002 360.025 52.192 360.044 52.0858C360.064 51.9795 360.107 51.8877 360.151 51.8877C360.296 51.9492 360.449 51.9914 360.605 52.0133C360.9 52.0423 361.291 52.0664 361.416 52.0664H365.281C365.527 52.0697 365.773 52.0519 366.015 52.0133C366.17 52.0133 366.262 51.9602 366.3 51.9602C366.339 51.9602 366.354 52.023 366.354 52.0858C366.354 52.3949 366.325 53.1051 366.325 53.2162C366.325 53.3273 366.291 53.3514 366.252 53.3514C366.213 53.3514 366.18 53.3176 366.17 53.1775V53.0616C366.136 52.7524 365.89 52.5157 364.899 52.4964H363.605L363.571 56.8441Z" fill="white"/>
<path d="M378.735 57.1628C378.751 56.7892 378.67 56.4178 378.498 56.0855C378.43 55.9213 377.049 53.6701 376.687 53.1194C376.502 52.8242 376.264 52.5655 375.986 52.3562C375.855 52.2672 375.704 52.2108 375.546 52.1919C375.493 52.1919 375.44 52.1919 375.44 52.1195C375.44 52.047 375.484 52.047 375.575 52.047C375.774 52.047 376.542 52.076 376.595 52.076C376.648 52.076 377.078 52.047 377.459 52.047C377.571 52.047 377.595 52.076 377.595 52.1195C377.595 52.1629 377.532 52.1726 377.44 52.2112C377.402 52.2262 377.369 52.2519 377.345 52.2854C377.321 52.3188 377.307 52.3585 377.305 52.3996C377.317 52.5422 377.364 52.6797 377.44 52.8006C377.604 53.1001 379.15 55.7522 379.334 56.0517C379.532 55.6218 380.836 53.3658 381.044 53.0228C381.151 52.8694 381.212 52.6882 381.218 52.5011C381.218 52.3562 381.179 52.2451 381.054 52.2112C380.928 52.1774 380.899 52.1629 380.899 52.1098C380.899 52.0567 380.962 52.047 381.063 52.047C381.329 52.047 381.662 52.076 381.744 52.076C381.826 52.076 382.546 52.047 382.744 52.047C382.812 52.047 382.875 52.047 382.875 52.1098C382.875 52.1726 382.826 52.1919 382.744 52.1919C382.573 52.1966 382.407 52.2466 382.261 52.3368C382.049 52.4746 381.866 52.6517 381.72 52.8586C381.002 53.9121 380.344 55.0056 379.749 56.1339C379.625 56.4619 379.572 56.8127 379.595 57.1628V58.0517C379.595 58.2159 379.595 58.6459 379.628 59.0806C379.628 59.3802 379.74 59.6072 380.049 59.6458C380.194 59.6458 380.421 59.6893 380.532 59.6893C380.643 59.6893 380.614 59.7183 380.614 59.7473C380.614 59.7763 380.566 59.8342 380.45 59.8342C379.885 59.8342 379.237 59.8004 379.184 59.8004C379.131 59.8004 378.484 59.8342 378.174 59.8342C378.063 59.8342 378.01 59.8342 378.01 59.7473C378.01 59.6603 378.01 59.6893 378.092 59.6893C378.196 59.6843 378.3 59.6698 378.401 59.6458C378.609 59.6072 378.701 59.3802 378.72 59.0806C378.749 58.6459 378.749 58.2159 378.749 58.0517L378.735 57.1628Z" fill="white"/>
<path d="M254.926 76.4957H219.082V77.3363H254.926V76.4957Z" fill="white"/>
<path d="M398.464 44.7284C398.767 44.7284 399.064 44.8185 399.317 44.9873C399.57 45.1561 399.767 45.396 399.883 45.6767C399.999 45.9574 400.03 46.2663 399.97 46.5643C399.911 46.8623 399.765 47.136 399.55 47.3509C399.335 47.5657 399.061 47.712 398.763 47.7713C398.465 47.8306 398.156 47.8001 397.876 47.6839C397.595 47.5676 397.355 47.3707 397.186 47.1181C397.018 46.8655 396.927 46.5684 396.927 46.2646C396.924 46.062 396.962 45.8608 397.038 45.6729C397.114 45.485 397.227 45.3144 397.37 45.1711C397.513 45.0278 397.684 44.9148 397.872 44.8387C398.06 44.7627 398.261 44.7252 398.464 44.7284M398.464 47.6269C398.741 47.6307 399.013 47.5516 399.245 47.3998C399.477 47.2479 399.658 47.0303 399.765 46.7747C399.873 46.5191 399.901 46.2373 399.847 45.9654C399.794 45.6935 399.66 45.4438 399.463 45.2485C399.266 45.0532 399.016 44.9211 398.743 44.8691C398.471 44.8172 398.19 44.8478 397.935 44.957C397.68 45.0661 397.464 45.2489 397.313 45.4819C397.163 45.7149 397.086 45.9875 397.092 46.2646C397.088 46.4474 397.121 46.629 397.189 46.7987C397.257 46.9683 397.358 47.1225 397.487 47.252C397.616 47.3815 397.77 47.4836 397.94 47.5521C398.109 47.6207 398.291 47.6543 398.473 47.6511M398.865 47.1342C398.816 47.078 398.784 47.0094 398.773 46.9361L398.72 46.7091C398.695 46.6309 398.644 46.5638 398.575 46.5196C398.506 46.4754 398.424 46.457 398.343 46.4675H398.203V47.1342H397.831V45.3274H398.541C398.942 45.3274 399.203 45.5013 399.203 45.8878C399.203 46.1873 398.995 46.3371 398.72 46.3709C398.908 46.4047 399.048 46.4578 399.111 46.6607L399.179 46.9313C399.199 47.0127 399.237 47.0886 399.29 47.1535L398.865 47.1342ZM397.802 43.7623H398.039C398.343 43.7623 398.439 43.6656 398.439 43.4917C398.439 43.3178 398.314 43.2115 398.092 43.2115H397.802V43.7623Z" fill="white"/>
<path d="M232.874 95.819V97.4421L232.106 97.5194L230.391 107.181H227.584L226.135 101.616C225.977 101.052 225.854 100.48 225.768 99.901H225.719C225.627 100.474 225.504 101.042 225.352 101.601L223.927 107.181H221.12L219.405 97.5194L218.623 97.4421V95.819H222.178V97.4421L221.55 97.5049L222.425 102.698C222.55 103.466 222.642 104.147 222.734 104.906H222.806C222.893 104.203 223.027 103.508 223.207 102.824L224.497 98.1184H227.048L228.333 102.853C228.515 103.527 228.649 104.213 228.734 104.906H228.796C228.888 104.2 228.98 103.495 229.115 102.698L229.946 97.5049L229.318 97.4421V95.819H232.874Z" fill="white"/>
<path d="M234.13 107.205V105.596L234.883 105.519V100.263L234.13 100.186V98.5773H236.922V105.519L237.671 105.596V107.205H234.13ZM234.849 97.244V95.3117H236.951V97.244H234.849Z" fill="white"/>
<path d="M242.82 107.418C240.337 107.418 239.188 106.026 239.188 103.437V102.331C239.188 99.7077 240.337 98.3599 242.82 98.3599C243.72 98.3436 244.617 98.4525 245.487 98.6836V100.857H244.125L243.984 100.109C243.724 100.08 243.342 100.08 243.144 100.08C241.917 100.08 241.212 100.476 241.212 102.331V103.437C241.212 105.287 241.917 105.703 243.144 105.703C243.627 105.703 244.385 105.674 245.472 105.582V107.099C244.607 107.324 243.715 107.431 242.82 107.418V107.418Z" fill="white"/>
<path d="M252.752 107.205L249.704 103.099V107.205H246.931V105.597L247.68 105.519V96.9687L246.931 96.8914V95.2972H249.704V102.413L252.767 98.5484H254.974V100.157L253.95 100.249L251.786 102.664L254.1 105.505L255.008 105.597V107.205H252.752Z" fill="white"/>
<path d="M259.414 107.205V105.568L260.197 105.505V97.5194L259.414 97.4421V95.819C260.767 95.7562 262.163 95.7272 263.525 95.7272C266.312 95.7272 268.535 96.2634 268.535 99.2971V99.4662C268.535 102.548 266.312 103.099 263.66 103.099H262.284V105.514L263.066 105.592V107.215L259.414 107.205ZM266.438 99.2971C266.438 97.7948 265.501 97.5339 263.631 97.5339H262.284V101.273C262.714 101.273 263.172 101.273 263.631 101.273C265.501 101.273 266.438 100.954 266.438 99.4517V99.2971Z" fill="white"/>
<path d="M273.708 107.418C271.196 107.418 269.815 106.133 269.815 103.418V102.36C269.815 99.6497 271.196 98.3599 273.708 98.3599C276.22 98.3599 277.616 99.6353 277.616 102.36V103.418C277.616 106.133 276.24 107.418 273.708 107.418ZM275.592 102.36C275.592 100.708 275.013 100.08 273.708 100.08C272.404 100.08 271.839 100.708 271.839 102.36V103.418C271.839 105.075 272.404 105.703 273.708 105.703C275.013 105.703 275.592 105.075 275.592 103.418V102.36Z" fill="white"/>
<path d="M281.264 103.529V103.664C281.264 104.939 281.433 105.751 283.549 105.751C284.589 105.742 285.627 105.674 286.66 105.548V107.051C285.612 107.306 284.536 107.43 283.457 107.418C280.361 107.418 279.24 106.195 279.24 103.297V102.577C279.24 99.756 280.607 98.3599 283.133 98.3599C286.032 98.3599 287.027 100.215 287.027 102.746V103.529H281.264ZM285.022 102.08C285.022 101.084 284.805 99.9976 283.133 99.9976C281.462 99.9976 281.278 101.084 281.278 102.08V102.2H285.017L285.022 102.08Z" fill="white"/>
<path d="M292.457 107.418C290.752 107.418 290.08 106.761 290.08 104.954V100.186L288.467 100.065V98.5773H290.08V96.4276H292.099V98.5773H294.196V100.186H292.094V104.92C292.094 105.717 292.157 105.886 292.892 105.886C293.336 105.886 293.95 105.843 294.196 105.824V107.205C293.627 107.344 293.043 107.415 292.457 107.418V107.418Z" fill="white"/>
<path d="M298.403 100.722V105.519L299.167 105.596V107.205H295.645V105.596L296.399 105.519V100.263L295.645 100.186V98.5773H298.312V99.2826C299.152 98.6214 300.206 98.293 301.273 98.3599V100.215C300.293 100.206 299.321 100.378 298.403 100.722Z" fill="white"/>
<path d="M310.572 100.263L308.075 107.509C307.369 109.534 306.77 110.548 304.809 110.548C304.129 110.554 303.451 110.487 302.785 110.35V108.901C303.49 108.935 303.857 108.935 304.365 108.935C305.253 108.935 305.452 108.611 305.814 107.524L305.939 107.138L303.302 100.258L302.398 100.181V98.5725H304.973L306.379 102.969C306.632 103.723 306.843 104.491 307.012 105.268H307.041C307.169 104.505 307.353 103.753 307.592 103.017L308.881 98.5725H311.471V100.181L310.572 100.263Z" fill="white"/>
<path d="M320.765 107.437C317.838 107.437 315.905 106.331 315.905 102.268V100.737C315.905 96.674 317.838 95.587 320.765 95.587C321.727 95.5988 322.685 95.6958 323.63 95.8769V98.5H322.214L322.06 97.4855C321.693 97.4855 321.296 97.4566 320.91 97.4566C318.978 97.4566 318.079 98.1329 318.079 100.737V102.268C318.079 104.877 318.997 105.582 320.91 105.582C321.296 105.582 321.693 105.582 322.06 105.548L322.214 104.51H323.639V107.142C322.692 107.328 321.73 107.427 320.765 107.437V107.437Z" fill="white"/>
<path d="M327.263 103.529V103.664C327.263 104.939 327.432 105.751 329.548 105.751C330.588 105.742 331.626 105.674 332.659 105.548V107.051C331.611 107.306 330.535 107.43 329.456 107.418C326.359 107.418 325.243 106.195 325.243 103.297V102.577C325.243 99.756 326.606 98.3599 329.137 98.3599C332.036 98.3599 333.002 100.215 333.002 102.746V103.529H327.263ZM331.021 102.08C331.021 101.084 330.804 99.9976 329.137 99.9976C327.47 99.9976 327.282 101.084 327.282 102.08V102.2H331.021V102.08Z" fill="white"/>
<path d="M340.721 107.205V101.732C340.721 100.49 340.509 100.065 339.514 100.065C338.728 100.12 337.959 100.317 337.243 100.645V105.519L338.011 105.596V107.205H334.47V105.596L335.219 105.519V100.263L334.47 100.186V98.5773H337.19V99.2681C338.039 98.7208 339.017 98.4075 340.026 98.3599C342.441 98.3599 342.77 99.7705 342.77 101.741V105.529L343.538 105.606V107.215L340.721 107.205Z" fill="white"/>
<path d="M348.847 107.418C347.146 107.418 346.47 106.761 346.47 104.954V100.186L344.861 100.065V98.5773H346.47V96.4276H348.494V98.5773H350.595V100.186H348.494V104.92C348.494 105.717 348.557 105.886 349.291 105.886C349.736 105.886 350.349 105.843 350.595 105.824V107.205C350.023 107.344 349.436 107.415 348.847 107.418V107.418Z" fill="white"/>
<path d="M354.165 103.529V103.664C354.165 104.939 354.334 105.751 356.45 105.751C357.49 105.742 358.529 105.674 359.561 105.548V107.051C358.513 107.306 357.437 107.43 356.358 107.418C353.262 107.418 352.141 106.195 352.141 103.297V102.577C352.141 99.756 353.508 98.3599 356.035 98.3599C358.933 98.3599 359.928 100.215 359.928 102.746V103.529H354.165ZM357.919 102.08C357.919 101.084 357.706 99.9976 356.035 99.9976C354.363 99.9976 354.18 101.084 354.18 102.08V102.2H357.919V102.08Z" fill="white"/>
<path d="M364.146 100.722V105.519L364.909 105.596V107.205H361.373V105.596L362.122 105.519V100.263L361.373 100.186V98.5773H364.039V99.2826C364.878 98.6226 365.931 98.2942 366.996 98.36V100.215C366.023 100.209 365.057 100.381 364.146 100.722V100.722Z" fill="white"/>
<path d="M222.217 129.857C220.072 129.857 218.652 129.045 218.652 126.065V124.944C218.652 121.963 220.072 121.166 222.217 121.166C222.922 121.173 223.626 121.244 224.318 121.379V123.311H223.275L223.183 122.557C222.912 122.557 222.618 122.557 222.338 122.557C220.932 122.557 220.255 123.04 220.255 124.973V126.084C220.255 128.016 220.932 128.499 222.338 128.499C222.618 128.499 222.912 128.499 223.183 128.475L223.294 127.712H224.337V129.644C223.639 129.78 222.929 129.851 222.217 129.857V129.857Z" fill="white"/>
<path d="M228.396 129.842C226.555 129.842 225.541 128.9 225.541 126.91V126.132C225.541 124.142 226.555 123.2 228.396 123.2C230.236 123.2 231.265 124.132 231.265 126.132V126.91C231.265 128.9 230.251 129.842 228.396 129.842ZM229.777 126.132C229.777 124.92 229.352 124.461 228.396 124.461C227.439 124.461 227.024 124.92 227.024 126.132V126.91C227.024 128.123 227.439 128.586 228.396 128.586C229.352 128.586 229.777 128.103 229.777 126.91V126.132Z" fill="white"/>
<path d="M232.362 129.688V128.499L232.912 128.446V122.166L232.362 122.123V120.954H234.395V128.451L234.956 128.504V129.688H232.362Z" fill="white"/>
<path d="M235.951 129.688V128.499L236.502 128.446V122.166L235.951 122.113V120.944H237.985V128.451L238.55 128.504V129.688H235.951Z" fill="white"/>
<path d="M241.11 126.987V127.089C241.11 128.021 241.236 128.62 242.786 128.62C243.549 128.613 244.31 128.563 245.066 128.47V129.572C244.298 129.761 243.51 129.852 242.719 129.842C240.448 129.842 239.627 128.944 239.627 126.818V126.292C239.627 124.224 240.627 123.2 242.482 123.2C244.593 123.2 245.337 124.562 245.337 126.417V126.987H241.11ZM243.864 125.92C243.864 125.19 243.709 124.393 242.482 124.393C241.255 124.393 241.12 125.19 241.12 125.92V126.011H243.864V125.92Z" fill="white"/>
<path d="M249.294 132.147C247.269 132.147 246.395 131.519 246.395 130.147C246.399 129.901 246.454 129.659 246.554 129.435C246.654 129.211 246.799 129.009 246.98 128.842C246.824 128.741 246.698 128.6 246.614 128.435C246.529 128.27 246.489 128.086 246.496 127.9C246.492 127.698 246.542 127.499 246.642 127.323C246.741 127.147 246.886 127.001 247.062 126.9C246.885 126.694 246.751 126.454 246.668 126.196C246.585 125.937 246.555 125.664 246.579 125.393C246.579 124.132 247.062 123.2 249.356 123.2H252.337V124.098L251.719 124.21C251.969 124.552 252.1 124.968 252.091 125.393C252.091 126.934 251.124 127.596 249.322 127.596C248.858 127.608 248.394 127.543 247.951 127.403C247.884 127.447 247.828 127.505 247.787 127.574C247.746 127.642 247.721 127.719 247.714 127.799C247.714 128.079 247.873 128.137 248.265 128.137H249.322C251.178 128.137 252.289 128.417 252.289 130.113C252.26 131.499 251.318 132.147 249.294 132.147ZM249.294 129.205H248.158C248.037 129.326 247.944 129.472 247.886 129.633C247.827 129.794 247.805 129.966 247.82 130.137C247.82 130.789 248.047 131.103 249.269 131.103C250.492 131.103 250.796 130.789 250.796 130.137C250.82 129.374 250.53 129.205 249.294 129.205V129.205ZM249.294 124.292C248.149 124.292 247.989 124.731 247.989 125.393C247.989 126.055 248.192 126.504 249.294 126.504C250.395 126.504 250.622 126.079 250.622 125.393C250.622 124.707 250.419 124.292 249.294 124.292Z" fill="white"/>
<path d="M254.878 126.987V127.089C254.878 128.021 255.003 128.62 256.554 128.62C257.318 128.613 258.081 128.563 258.839 128.47V129.572C258.069 129.761 257.279 129.851 256.486 129.842C254.216 129.842 253.395 128.944 253.395 126.818V126.292C253.395 124.224 254.395 123.2 256.25 123.2C258.366 123.2 259.105 124.562 259.105 126.417V126.987H254.878ZM257.636 125.92C257.636 125.19 257.477 124.393 256.25 124.393C255.023 124.393 254.892 125.19 254.892 125.92V126.011H257.636V125.92Z" fill="white"/>
<path d="M265.337 129.842C263.491 129.842 262.477 128.9 262.477 126.91V126.132C262.477 124.142 263.491 123.2 265.337 123.2C267.182 123.2 268.201 124.132 268.201 126.132V126.91C268.201 128.9 267.187 129.842 265.337 129.842ZM266.718 126.132C266.718 124.92 266.288 124.461 265.337 124.461C264.385 124.461 263.965 124.92 263.965 126.132V126.91C263.965 128.123 264.38 128.586 265.337 128.586C266.293 128.586 266.718 128.103 266.718 126.91V126.132Z" fill="white"/>
<path d="M271.82 124.538V128.451L272.37 128.504V129.688H269.771V128.499L270.336 128.446V124.533L269.211 124.441V123.35H270.336V122.751C270.336 121.591 270.66 120.785 272.1 120.785C272.559 120.788 273.016 120.845 273.462 120.954V121.92C273.148 121.92 272.81 121.886 272.472 121.886C271.853 121.886 271.82 122.137 271.82 122.789V123.369H273.423V124.553L271.82 124.538Z" fill="white"/>
<path d="M276.496 129.688V128.499L277.056 128.446L278.935 122.586L278.351 122.528V121.34H281.636L283.853 128.446L284.437 128.499V129.693H281.737V128.499L282.152 128.466L281.805 127.33H279.128L278.771 128.466L279.172 128.499V129.683L276.496 129.688ZM280.8 123.751C280.666 123.321 280.564 122.882 280.496 122.437H280.409C280.334 122.88 280.232 123.319 280.104 123.751L279.409 126.055H281.5L280.8 123.751Z" fill="white"/>
<path d="M287.389 124.929V128.451L287.95 128.504V129.688H285.355V128.499L285.906 128.446V124.582L285.355 124.524V123.34H287.288V123.862C287.905 123.378 288.679 123.137 289.462 123.185V124.548C288.753 124.549 288.051 124.678 287.389 124.929V124.929Z" fill="white"/>
<path d="M293.288 129.842C292.041 129.842 291.549 129.359 291.549 128.036V124.538L290.365 124.446V123.354H291.549V121.784H293.032V123.354H294.573V124.538H293.032V128.016C293.032 128.601 293.075 128.712 293.616 128.712C293.94 128.712 294.394 128.678 294.582 128.668V129.683C294.158 129.785 293.724 129.839 293.288 129.842Z" fill="white"/>
<path d="M297.92 129.842C297.194 129.839 296.47 129.757 295.761 129.596V128.016H296.795L296.896 128.644C297.225 128.668 297.529 128.678 297.92 128.678C298.766 128.678 299.012 128.451 299.012 128.016C299.012 127.581 298.819 127.451 297.896 127.05L297.437 126.857C296.244 126.374 295.66 125.891 295.66 124.881C295.66 123.62 296.515 123.171 298.215 123.171C298.907 123.174 299.596 123.256 300.268 123.417V124.867H299.249L299.133 124.34C298.843 124.316 298.437 124.306 298.225 124.306C297.447 124.306 297.123 124.408 297.123 124.847C297.123 125.287 297.317 125.398 298.09 125.722L298.597 125.934C299.993 126.567 300.476 126.968 300.476 127.968C300.476 129.113 299.8 129.842 297.92 129.842Z" fill="white"/>
<path d="M307.645 129.688V129.272C307.051 129.652 306.359 129.85 305.654 129.842C304.476 129.842 303.79 129.272 303.79 128.045V127.799C303.79 126.123 305.002 125.867 306.78 125.867H307.534V125.485C307.534 124.586 307.34 124.393 306.215 124.393C305.925 124.393 305.655 124.393 305.35 124.427L305.249 124.992H304.225V123.543C304.951 123.319 305.706 123.205 306.466 123.205C308.485 123.205 309.026 123.891 309.026 125.509V128.456L309.577 128.509V129.693L307.645 129.688ZM307.577 126.789H306.78C305.688 126.789 305.229 126.915 305.229 127.731V128.016C305.229 128.601 305.597 128.755 306.113 128.755C306.619 128.741 307.115 128.61 307.563 128.374L307.577 126.789Z" fill="white"/>
<path d="M315.152 129.688V125.673C315.152 124.765 314.997 124.446 314.268 124.446C313.691 124.488 313.126 124.634 312.601 124.876V128.451L313.162 128.504V129.688H310.567V128.499L311.118 128.446V124.582L310.567 124.524V123.34H312.553V123.823C313.177 123.425 313.895 123.197 314.635 123.161C316.422 123.161 316.649 124.195 316.649 125.635V128.412L317.21 128.465V129.649L315.152 129.688Z" fill="white"/>
<path d="M322.446 129.688V129.359C321.913 129.684 321.298 129.852 320.673 129.842C319.185 129.842 318.311 128.958 318.311 127.021V126.123C318.311 123.886 319.422 123.224 321.04 123.224C321.483 123.223 321.925 123.265 322.359 123.35V122.065L321.726 122.012V120.978H323.842V128.451L324.403 128.504V129.688H322.446ZM322.369 124.548C321.979 124.483 321.585 124.446 321.19 124.437C320.287 124.437 319.794 124.683 319.794 126.123V127.021C319.794 128.147 320.156 128.596 321.074 128.596C321.521 128.593 321.961 128.497 322.369 128.316V124.548Z" fill="white"/>
<path d="M330.528 129.857C329.643 129.865 328.759 129.781 327.891 129.606V127.751H328.924L329.036 128.528C329.519 128.552 329.755 128.572 330.528 128.572C331.417 128.572 331.915 128.272 331.915 127.504C331.915 126.968 331.654 126.683 330.842 126.316L329.528 125.731C328.393 125.21 327.688 124.673 327.688 123.369C327.688 121.828 328.707 121.166 330.688 121.166C331.531 121.168 332.371 121.259 333.195 121.437V123.21H332.161L332.026 122.47C331.62 122.446 331.137 122.437 330.779 122.437C329.775 122.437 329.224 122.64 329.224 123.325C329.224 123.809 329.475 124.098 330.292 124.446L331.596 125.021C332.857 125.572 333.475 126.166 333.475 127.437C333.475 129.055 332.432 129.857 330.528 129.857Z" fill="white"/>
<path d="M337.345 129.842C335.523 129.842 334.678 128.823 334.678 126.944V126.137C334.678 124.205 335.523 123.239 337.345 123.239C337.996 123.229 338.647 123.309 339.277 123.475V125.069H338.272L338.175 124.519C337.982 124.519 337.692 124.519 337.552 124.519C336.654 124.519 336.137 124.809 336.137 126.171V126.978C336.137 128.34 336.654 128.644 337.586 128.644C337.944 128.644 338.494 128.62 339.296 128.552V129.664C338.657 129.812 338 129.872 337.345 129.842V129.842Z" fill="white"/>
<path d="M340.354 129.688V128.499L340.905 128.446V124.582L340.354 124.524V123.34H342.402V128.451L342.953 128.504V129.688H340.354ZM340.881 122.379V120.929H342.422V122.379H340.881Z" fill="white"/>
<path d="M345.513 126.987V127.089C345.513 128.021 345.639 128.62 347.19 128.62C347.952 128.613 348.713 128.563 349.47 128.47V129.572C348.702 129.761 347.913 129.852 347.122 129.842C344.852 129.842 344.03 128.944 344.03 126.818V126.292C344.03 124.224 345.03 123.2 346.885 123.2C349.001 123.2 349.74 124.562 349.74 126.417V126.987H345.513ZM348.267 125.92C348.267 125.19 348.112 124.393 346.885 124.393C345.658 124.393 345.523 125.19 345.523 125.92V126.011H348.267V125.92Z" fill="white"/>
<path d="M355.383 129.688V125.673C355.383 124.765 355.228 124.446 354.494 124.446C353.919 124.489 353.356 124.635 352.832 124.876V128.451L353.392 128.504V129.688H350.798V128.499L351.349 128.446V124.582L350.798 124.524V123.34H352.774V123.823C353.399 123.425 354.116 123.197 354.856 123.161C356.644 123.161 356.866 124.195 356.866 125.635V128.412L357.431 128.465V129.649L355.383 129.688Z" fill="white"/>
<path d="M361.204 129.842C359.383 129.842 358.542 128.823 358.542 126.944V126.137C358.542 124.205 359.383 123.239 361.204 123.239C361.856 123.229 362.506 123.308 363.136 123.475V125.069H362.136L362.035 124.519C361.846 124.519 361.552 124.519 361.416 124.519C360.518 124.519 360.001 124.809 360.001 126.171V126.978C360.001 128.34 360.518 128.644 361.45 128.644C361.812 128.644 362.363 128.62 363.16 128.552V129.664C362.519 129.813 361.861 129.873 361.204 129.842V129.842Z" fill="white"/>
<path d="M365.793 126.987V127.089C365.793 128.021 365.914 128.62 367.469 128.62C368.232 128.613 368.993 128.563 369.75 128.47V129.572C368.982 129.761 368.193 129.852 367.402 129.842C365.131 129.842 364.31 128.944 364.31 126.818V126.292C364.31 124.224 365.31 123.2 367.165 123.2C369.276 123.2 370.02 124.562 370.02 126.417V126.987H365.793ZM368.547 125.92C368.547 125.19 368.387 124.393 367.165 124.393C365.943 124.393 365.803 125.19 365.803 125.92V126.011H368.547V125.92Z" fill="white"/>
<path d="M373.377 129.842C372.651 129.839 371.927 129.757 371.218 129.596V128.016H372.257L372.358 128.644C372.682 128.668 372.986 128.678 373.377 128.678C374.223 128.678 374.469 128.451 374.469 128.016C374.469 127.581 374.276 127.451 373.358 127.05L372.875 126.857C371.687 126.374 371.102 125.891 371.102 124.881C371.102 123.62 371.952 123.171 373.653 123.171C374.346 123.174 375.036 123.256 375.711 123.417V124.867H374.686L374.575 124.34C374.281 124.316 373.875 124.306 373.662 124.306C372.889 124.306 372.561 124.408 372.561 124.847C372.561 125.287 372.754 125.398 373.527 125.722L374.01 125.934C375.426 126.533 375.899 126.939 375.899 127.939C375.943 129.113 375.257 129.842 373.377 129.842Z" fill="white"/>
</g>
<defs>
<clipPath id="clip0_26_108">
<rect width="400" height="139.886" fill="white"/>
</clipPath>
</defs>
</svg>